<?xml version="1.0" encoding="UTF-8"?>
<svg width="62px" height="60px" viewBox="0 0 62 60" version="1.1" xmlns="http://www.w3.org/2000/svg" xmlns:xlink="http://www.w3.org/1999/xlink">
    <title>icon / arrow-left-circle</title>
    <defs>
        <path d="M61.3333333,29.6 L61.3333333,32 C61.3333333,48.2666667 48.2666667,61.3333333 32,61.3333333 C32,61.3333333 32,61.3333333 32,61.3333333 C15.7333333,61.3333333 2.66666667,48.2666667 2.66666667,32 C2.66666667,15.7333333 15.7333333,2.66666667 32,2.66666667 C32,2.66666667 32,2.66666667 32,2.66666667 C36,2.66666667 40.2666667,3.46666667 44,5.33333333 C45.3333333,5.86666667 45.8666667,7.46666667 45.3333333,8.8 C44.8,10.1333333 43.2,10.6666667 41.8666667,10.1333333 C38.6666667,8.8 35.4666667,8 32,8 C32,8 32,8 32,8 C18.6666667,8 8,18.6666667 8,32 C8,45.3333333 18.6666667,56 32,56 C32,56 32,56 32,56 C45.3333333,56 56,45.3333333 56,32 L56,29.6 C56,28 57.0666667,26.9333333 58.6666667,26.9333333 C60.2666667,26.9333333 61.3333333,28 61.3333333,29.6 Z M63.2,6.13333333 C62.1333333,5.06666667 60.5333333,5.06666667 59.4666667,6.13333333 L32,33.6 L25.8666667,27.4666667 C24.8,26.4 23.2,26.4 22.1333333,27.4666667 C21.0666667,28.5333333 21.0666667,30.1333333 22.1333333,31.2 L30.1333333,39.2 C30.6666667,39.7333333 31.4666667,40 32,40 C32.5333333,40 33.3333333,39.7333333 33.8666667,39.2 L63.2,9.86666667 C64.2666667,8.8 64.2666667,7.2 63.2,6.13333333 Z" id="path-1"></path>
    </defs>
    <g id="PWA-Design" stroke="none" stroke-width="1" fill="none" fill-rule="evenodd" opacity="0.201359488">
        <g id="GenericSuccess_passwordOrNameChange" transform="translate(-158.000000, -110.000000)">
            <g id="success" transform="translate(16.000000, 108.000000)">
                <g id="icon-/-arrow-left-circle" transform="translate(140.000000, 0.000000)">
                    <mask id="mask-2" fill="white">
                        <use xlink:href="#path-1"></use>
                    </mask>
                    <use id="Mask" fill="#000000" fill-rule="nonzero" xlink:href="#path-1"></use>
                    <g id="Group" mask="url(#mask-2)" fill="#000000">
                        <g id="Icon-Color">
                            <rect id="Shape" x="0" y="0" width="64" height="64"></rect>
                        </g>
                    </g>
                </g>
            </g>
        </g>
    </g>
</svg>