<?xml version="1.0" encoding="UTF-8"?>
<svg width="24px" height="24px" viewBox="0 0 24 24" version="1.1" xmlns="http://www.w3.org/2000/svg" xmlns:xlink="http://www.w3.org/1999/xlink">
    <title>icon / network map</title>
    <g id="Symbols" stroke="none" stroke-width="1" fill="none" fill-rule="evenodd">
        <g id="card-/-1-value-/-mobile" transform="translate(-36.000000, -36.000000)">
            <g id="Group" transform="translate(36.000000, 36.000000)">
                <g id="noun_diagram_2286210"></g>
                <g id="noun_Network_2184250" fill="#FFFFFF" fill-rule="nonzero" stroke="#FFFFFF" stroke-width="0.735">
                    <path d="M3.52430214,13.7771217 C4.79868243,13.7733685 5.93347644,12.9715898 6.3602745,11.7733904 L8.98612555,12.1475812 C9.03365524,12.9469268 9.39994413,13.6940065 10.003224,14.2220466 L8.09084183,17.561639 C7.78909827,17.4575488 7.47258021,17.4024102 7.15334031,17.3983228 C5.67364835,17.3823883 4.39491929,18.4261631 4.11729273,19.8765258 C3.83966617,21.3268885 4.64284483,22.7674601 6.02425542,23.2968312 C7.40566601,23.8262023 8.96872483,23.2923979 9.73537849,22.0294356 C10.5020321,20.7664732 10.2521851,19.1369319 9.14217419,18.160465 L11.0545563,14.8208726 C11.7614192,15.0695166 12.5376015,15.0332272 13.2180679,14.7197203 L15.8317012,18.3689255 C14.7813732,19.505766 14.7641042,21.2514651 15.7917378,22.4087727 C16.8193714,23.5660804 18.5581986,23.7591779 19.8156825,22.8556336 C21.0731663,21.9520893 21.4409572,20.2453158 20.6668138,18.9058669 C19.8926705,17.566418 18.2279844,17.0292601 16.8144447,17.6627912 L14.2008114,14.0135861 C14.6759264,13.5030185 14.9578245,12.8431624 14.9979902,12.1475812 L17.6238412,11.7733904 C18.1443443,13.2336219 19.6884307,14.0633369 21.1967065,13.6932698 C22.7049823,13.3232027 23.6873953,11.8735917 23.4699143,10.3390114 C23.2524333,8.80443104 21.9057197,7.68348013 20.3537507,7.7452404 C18.8017816,7.80700066 17.5488054,9.03140565 17.4544861,10.578394 L14.8286351,10.9525848 C14.4751545,9.96095713 13.6294374,9.22474262 12.5968975,9.00981035 L12.5968975,6.474366 C14.1180471,6.16453319 15.1569841,4.75568436 15.0009422,3.21436499 C14.8449004,1.67304563 13.5445746,0.5 11.9920579,0.5 C10.4395411,0.5 9.13921532,1.67304563 8.98317346,3.21436499 C8.82713161,4.75568436 9.86606858,6.16453319 11.3872182,6.474366 L11.3872182,9.01041389 C10.3550501,9.22542156 9.50962947,9.96134882 9.1560855,10.9525848 L6.53023445,10.578394 C6.42807624,8.94187957 5.03260315,7.68766627 3.39082884,7.75678151 C1.74905452,7.82589675 0.464408859,9.1929374 0.500752453,10.8322225 C0.537096046,12.4715076 1.8810709,13.7805221 3.52430214,13.7771217 Z M7.15334031,22.2265911 C6.15120909,22.2265911 5.33882122,21.4159576 5.33882122,20.4159905 C5.33882122,19.4160234 6.15120909,18.6053899 7.15334031,18.6053899 C8.15547152,18.6053899 8.96785939,19.4160234 8.96785939,20.4159905 C8.9667261,21.4154888 8.15500172,22.2254602 7.15334031,22.2265911 Z M19.8549739,20.4159905 C19.8549739,21.4159576 19.042586,22.2265911 18.0404548,22.2265911 C17.0383236,22.2265911 16.2259357,21.4159576 16.2259357,20.4159905 C16.2259357,19.4160234 17.0383236,18.6053899 18.0404548,18.6053899 C19.0421162,18.6065207 19.8538406,19.4164922 19.8549739,20.4159905 Z M20.4598136,8.94885347 C21.4619448,8.94885347 22.2743326,9.75948696 22.2743326,10.759454 C22.2743326,11.7594211 21.4619448,12.5700546 20.4598136,12.5700546 C19.4576824,12.5700546 18.6452945,11.7594211 18.6452945,10.759454 C18.6464278,9.75995574 19.4581522,8.94998431 20.4598136,8.94885347 Z M10.1775388,3.51705172 C10.1775388,2.51708463 10.9899266,1.70645114 11.9920579,1.70645114 C12.9941891,1.70645114 13.8065769,2.51708463 13.8065769,3.51705172 C13.8065769,4.51701881 12.9941891,5.3276523 11.9920579,5.3276523 C10.9903964,5.32652146 10.1786721,4.51655002 10.1775388,3.51705172 L10.1775388,3.51705172 Z M11.9920579,10.1559205 C12.9941891,10.1559205 13.8065769,10.966554 13.8065769,11.9665211 C13.8065769,12.9664882 12.9941891,13.7771217 11.9920579,13.7771217 C10.9899266,13.7771217 10.1775388,12.9664882 10.1775388,11.9665211 C10.1786721,10.9670228 10.9903964,10.1570514 11.9920579,10.1559205 L11.9920579,10.1559205 Z M3.52430214,8.94885347 C4.52643336,8.94885347 5.33882122,9.75948696 5.33882122,10.759454 C5.33882122,11.7594211 4.52643336,12.5700546 3.52430214,12.5700546 C2.52217093,12.5700546 1.70978306,11.7594211 1.70978306,10.759454 C1.71091635,9.75995574 2.52264073,8.94998431 3.52430214,8.94885347 Z" id="Shape"></path>
                </g>
            </g>
        </g>
    </g>
</svg>