<?xml version="1.0" encoding="UTF-8"?>
<svg width="24px" height="24px" viewBox="0 0 24 24" version="1.1" xmlns="http://www.w3.org/2000/svg" xmlns:xlink="http://www.w3.org/1999/xlink">
    <title>icon / QR code</title>
    <g id="icon-/-QR-code" stroke="none" stroke-width="1" fill="none" fill-rule="evenodd">
        <g id="noun_diagram_2286210"></g>
        <g id="noun_QR-Code_3550992" fill="#FFFFFF" fill-rule="nonzero">
            <path d="M21,0 L16.7142857,0 L16.7142857,2 L21.636311,2 C21.8730045,2 22,2.24429226 22,2.48098572 L22,7.28571429 L24,7.28571429 L24,3 C24,1.34314575 22.6568542,0 21,0 Z" id="Path"></path>
            <path d="M4.28571429,0 L0,0 L0,2 L4.92202528,2 C5.15871874,2 5.28571429,2.24429226 5.28571429,2.48098572 L5.28571429,7.28571429 L7.28571429,7.28571429 L7.28571429,3 C7.28571429,1.34314575 5.94256854,0 4.28571429,0 Z" id="Path" transform="translate(3.642857, 3.642857) scale(-1, 1) translate(-3.642857, -3.642857) "></path>
            <path d="M4.28571429,16.7 L6.49702514e-13,16.7 L6.49702514e-13,18.7 L4.92202528,18.7 C5.15871874,18.7 5.28571429,18.9442923 5.28571429,19.1809857 L5.28571429,23.9857143 L7.28571429,23.9857143 L7.28571429,19.7 C7.28571429,18.0431458 5.94256854,16.7 4.28571429,16.7 Z" id="Path" transform="translate(3.642857, 20.342857) scale(-1, -1) translate(-3.642857, -20.342857) "></path>
            <path d="M20.9857143,16.7 L16.7,16.7 L16.7,18.7 L21.6220253,18.7 C21.8587187,18.7 21.9857143,18.9442923 21.9857143,19.1809857 L21.9857143,23.9857143 L23.9857143,23.9857143 L23.9857143,19.7 C23.9857143,18.0431458 22.6425685,16.7 20.9857143,16.7 Z" id="Path" transform="translate(20.342857, 20.342857) scale(1, -1) translate(-20.342857, -20.342857) "></path>
            <rect id="Rectangle" x="10.7142857" y="10.7142857" width="2.57142857" height="2.57142857"></rect>
            <rect id="Rectangle" x="14.1428571" y="7.28571429" width="2.57142857" height="2.57142857"></rect>
            <rect id="Rectangle" x="7.28571429" y="7.28571429" width="2.57142857" height="2.57142857"></rect>
            <rect id="Rectangle" x="14.1428571" y="14.1428571" width="2.57142857" height="2.57142857"></rect>
            <rect id="Rectangle" x="7.28571429" y="14.1428571" width="2.57142857" height="2.57142857"></rect>
        </g>
    </g>
</svg>