<?xml version="1.0" encoding="UTF-8"?>
<svg width="24px" height="28px" viewBox="0 0 24 28" version="1.1" xmlns="http://www.w3.org/2000/svg" xmlns:xlink="http://www.w3.org/1999/xlink">
    <title>icon / router</title>
    <g id="icon-/-router" stroke="none" stroke-width="1" fill="none" fill-rule="evenodd">
        <g id="noun_diagram_2286210"></g>
        <g id="noun_wifi-router_503311" transform="translate(0.000000, 14.000000)" fill="#FFFFFF" fill-rule="nonzero">
            <g id="Group">
                <path d="M20.3808511,0.393617021 L3.62553191,0.393617021 C1.64680851,0.393617021 0.0382978723,2.00212766 0.0382978723,3.98723404 L0.0382978723,6.38085106 C0.0382978723,8.35957447 1.64680851,9.97446809 3.62553191,9.97446809 L20.3808511,9.97446809 C22.3595745,9.97446809 23.9744681,8.36595745 23.9744681,6.38085106 L23.9744681,3.98723404 C23.9680851,2.00212766 22.3595745,0.393617021 20.3808511,0.393617021 Z M22.0316334,6.49800266 C22.0316334,7.32090546 21.47182,8 20.7787177,8 L3.29121357,8 C2.60477571,8 2.03829787,7.32889481 2.03829787,6.49800266 L2.03829787,3.50199734 C2.03829787,2.67909454 2.59811127,2 3.29121357,2 L20.7853822,2 C21.47182,2 22.0382979,2.67110519 22.0382979,3.50199734 L22.0382979,6.49800266 L22.0316334,6.49800266 Z" id="Shape"></path>
                <rect id="Rectangle" x="3.62553191" y="3.98723404" width="2.39361702" height="2.39361702"></rect>
                <rect id="Rectangle" x="8.41276596" y="3.98723404" width="2.39361702" height="2.39361702"></rect>
            </g>
        </g>

        <g id="icon-/-wifi" fill="white" transform="translate(2.000000, -0.600000)">
            <path d="M17.4867369,7.85147059 C17.8481331,8.22205882 17.9384822,8.77794118 17.5770859,9.14852941 C17.2156897,9.51911765 16.6735952,9.61176471 16.312199,9.24117647 C12.9692834,6.36911765 8.09043368,6.36911765 4.74751812,9.24117647 C4.56681999,9.42647059 4.38612185,9.42647059 4.20542371,9.42647059 C3.9343765,9.42647059 3.66332939.33382353 3.48263116,9.05588235 C3.12123488,8.68529412 3.21158395,8.03676471 3.57298023,7.75882353 C7.63868833,4.42352941 13.5113778,4.42352941 17.4867369,7.85147059 Z M20.6489543,4.51617647 C14.8666139,-0.672058824 6.10275416,-0.672058824 0.320413741,4.51617647 C-0.0409825349,4.88676471 -0.131331604,5.44264706 0.230064672,5.81323529 C0.501111879,6.09117647 0.681810017,6.18382353 0.952857225,6.18382353 C1.13355536,6.18382353 1.40460257,6.09117647 1.58530071,5.99852941 C6.73519764,1.36617647 14.4148685,1.36617647 19.4744164,5.99852941 C19.8358127,6.36911765 20.3779071,6.27647059 20.7393033,5.90588235 C21.1006996,5.44264706 21.1006996,4.88676471 20.6489543,4.51617647 Z M6.91589578,11.0941176 C6.46415044,11.3720588 6.37380137,11.9279412 6.73519764,12.3911765 C7.00624485,12.8544118 7.54833926,12.9470588 8.00008461,12.5764706 C9.53601878,11.4647059 11.7043964,11.4647059 13.2403306,12.5764706 C13.4210288,12.6691176 13.6017269,12.7617647 13.782425,12.7617647 C14.0534722,12.7617647 14.3245194,12.6691176 14.5052176,12.3911765 C14.7762648,11.9279412 14.6859157,11.3720588 14.3245194,11.0941176 C11.9754436,9.51911765 9.08427344,9.51911765 6.91589578,11.0941176 Z" id="Mask"></path>
        </g>
    </g>
</svg>

