<?xml version="1.0" encoding="UTF-8"?>
<svg width="20px" height="20px" viewBox="0 0 20 20" version="1.1" xmlns="http://www.w3.org/2000/svg" xmlns:xlink="http://www.w3.org/1999/xlink">
    <title>Mask</title>
    <defs>
        <path d="M19,2 L5,2 C3.3,2 2,3.3 2,5 L2,19 C2,20.7 3.3,22 5,22 L19,22 C20.7,22 22,20.7 22,19 L22,5 C22,3.3 20.7,2 19,2 Z M20,19 C20,19.6 19.6,20 19,20 L5,20 C4.4,20 4,19.6 4,19 L4,5 C4,4.4 4.4,4 5,4 L19,4 C19.6,4 20,4.4 20,5 L20,19 Z" id="path-1"></path>
    </defs>
    <g id="Symbols" stroke="none" stroke-width="1" fill="none" fill-rule="evenodd">
        <g id="icon-/-square" transform="translate(-2.000000, -2.000000)">
            <mask id="mask-2" fill="white">
                <use xlink:href="#path-1"></use>
            </mask>
            <use id="Mask" fill="#FFFFFF" fill-rule="nonzero" xlink:href="#path-1"></use>
        </g>
    </g>
</svg>