<?xml version="1.0" encoding="UTF-8" standalone="no"?>
<!DOCTYPE svg PUBLIC "-//W3C//DTD SVG 1.1//EN" "http://www.w3.org/Graphics/SVG/1.1/DTD/svg11.dtd">
<svg width="100%" height="100%" viewBox="0 0 407 108" version="1.1" xmlns="http://www.w3.org/2000/svg" xmlns:xlink="http://www.w3.org/1999/xlink" xml:space="preserve" xmlns:serif="http://www.serif.com/" style="fill-rule:evenodd;clip-rule:evenodd;">
    <g transform="matrix(1,0,0,1,6.5992,-0.417268)">
        <g transform="matrix(3.2118,0,0,3.2118,0.000809202,-0.922911)">
            <g id="Authenticate_Password">
                <g id="ucentral_logo_small_rgb">
                    <g id="Layer_1">
                        <path id="Path" d="M0.035,18.902L2.556,18.902L2.556,27.741C2.568,28.428 3.131,28.978 3.818,28.973L23.217,28.973C23.922,28.973 24.498,28.411 24.515,27.706L24.515,18.902L27.135,18.902L27.135,30.517C27.13,31.179 26.591,31.713 25.929,31.71L1.206,31.71C0.544,31.713 0.005,31.179 -0,30.517L-0,18.936C-0.001,18.927 0.002,18.917 0.009,18.91C0.015,18.903 0.025,18.9 0.035,18.902Z" style="fill:rgb(12,38,68);fill-rule:nonzero;"/>
                        <rect id="Rectangle" x="24.502" y="16.056" width="2.621" height="2.43" style="fill:rgb(12,38,68);"/>
                        <path id="Path1" serif:id="Path" d="M0,18.491L0,16.056L2.556,16.056L2.556,18.491" style="fill:rgb(12,38,68);fill-rule:nonzero;"/>
                        <rect id="Rectangle1" serif:id="Rectangle" x="0" y="13.146" width="2.556" height="2.43" style="fill:rgb(245,137,31);"/>
                        <rect id="Rectangle2" serif:id="Rectangle" x="24.502" y="13.146" width="2.621" height="2.43" style="fill:rgb(245,137,31);"/>
                        <path id="Path2" serif:id="Path" d="M0,12.627L2.556,12.627C2.72,12.558 2.318,8.982 6.949,9.354C6.949,9.354 7.274,4.731 12.195,6.262C12.195,6.262 13.829,1.358 18.404,3.023C22.832,4.636 21.388,8.93 21.388,8.93C21.388,8.93 24.692,9.362 24.415,12.627L27.109,12.627C27.109,12.627 27.243,8.787 23.71,7.351C23.71,7.351 24.186,1.379 17.15,0.432C17.15,0.432 12.156,-0 10.971,3.754C10.971,3.754 6.988,3.196 5.405,6.919C5.405,6.919 0.065,6.88 0,12.627Z" style="fill:rgb(245,137,31);fill-rule:nonzero;"/>
                        <circle id="Oval" cx="5.985" cy="25.838" r="1.855" style="fill:none;stroke:rgb(245,137,31);stroke-width:3px;"/>
                        <circle id="Oval1" serif:id="Oval" cx="13.526" cy="24.657" r="1.855" style="fill:none;stroke:rgb(245,137,31);stroke-width:3px;"/>
                        <circle id="Oval2" serif:id="Oval" cx="21.021" cy="25.838" r="1.855" style="fill:none;stroke:rgb(245,137,31);stroke-width:3px;"/>
                        <circle id="Oval3" serif:id="Oval" cx="13.526" cy="24.627" r="1.215" style="fill:rgb(12,38,68);"/>
                        <circle id="Oval4" serif:id="Oval" cx="13.526" cy="13.652" r="1.44" style="fill:rgb(12,38,68);"/>
                        <circle id="Oval5" serif:id="Oval" cx="13.526" cy="9.431" r="1.215" style="fill:rgb(12,38,68);"/>
                        <circle id="Oval6" serif:id="Oval" cx="5.985" cy="25.838" r="1.215" style="fill:rgb(12,38,68);"/>
                        <rect id="Rectangle3" serif:id="Rectangle" x="12.917" y="9.609" width="1.232" height="15.33" style="fill:rgb(12,38,68);"/>
                        <g id="Rectangle4" serif:id="Rectangle" transform="matrix(0.759498,0.650509,-0.650509,0.759498,16.1455,-1.28559)">
                            <path d="M9.068,15.093L10.555,15.093L10.555,27.292L9.068,27.292L9.068,15.093Z" style="fill:rgb(12,38,68);fill-rule:nonzero;"/>
                        </g>
                        <g id="Rectangle5" serif:id="Rectangle" transform="matrix(-0.760972,0.648784,-0.648784,-0.760972,44.2279,26.2547)">
                            <path d="M16.534,15.056L18.021,15.056L18.021,27.493L16.534,27.493L16.534,15.056Z" style="fill:rgb(12,38,68);fill-rule:nonzero;"/>
                        </g>
                        <circle id="Oval7" serif:id="Oval" cx="21.021" cy="25.838" r="1.215" style="fill:rgb(12,38,68);"/>
                        <circle id="Oval8" serif:id="Oval" cx="13.531" cy="9.431" r="1.44" style="fill:rgb(12,38,68);"/>
                    </g>
                    <g id="Text" transform="matrix(1,0,0,1,32.4324,10.8108)">
                        <path id="Path3" serif:id="Path" d="M11.096,6.971L11.096,17.851L8.216,17.851L8.216,16.865C7.301,17.749 6.063,18.219 4.791,18.162C3.6,18.205 2.448,17.732 1.63,16.865C0.822,15.973 0.393,14.802 0.432,13.6L0.432,6.971L3.312,6.971L3.312,12.973C3.278,13.644 3.492,14.304 3.914,14.828C4.312,15.294 4.902,15.55 5.514,15.524C7.315,15.524 8.218,14.275 8.221,11.775L8.221,6.971L11.096,6.971Z" style="fill:rgb(245,137,31);fill-rule:nonzero;"/>
                        <path id="Path4" serif:id="Path" d="M22.054,15.429C23.243,15.454 24.403,15.064 25.336,14.326C26.315,13.498 26.974,12.354 27.2,11.092L30.071,11.676C29.745,13.565 28.739,15.269 27.243,16.467C23.813,19.049 19.007,18.723 15.957,15.702C14.329,14.089 13.435,11.878 13.483,9.587C13.438,7.29 14.337,5.075 15.97,3.459C19.01,0.457 23.786,0.125 27.213,2.677C28.69,3.817 29.703,5.455 30.063,7.286L27.183,8.095C26.95,6.836 26.292,5.696 25.319,4.865C24.395,4.122 23.24,3.724 22.054,3.741C20.556,3.711 19.117,4.321 18.097,5.418C17.026,6.537 16.448,8.039 16.493,9.587C16.449,11.134 17.027,12.634 18.097,13.751C19.116,14.85 20.556,15.46 22.054,15.429Z" style="fill:rgb(245,137,31);fill-rule:nonzero;"/>
                        <path id="Shape" d="M42.737,12.203L42.737,13.185L34.452,13.185C34.563,13.889 34.903,14.537 35.421,15.027C35.898,15.477 36.533,15.724 37.189,15.715C38.288,15.781 39.331,15.223 39.883,14.27L42.478,14.815C42.07,15.849 41.345,16.728 40.406,17.323C39.435,17.902 38.319,18.192 37.189,18.162C35.701,18.195 34.265,17.61 33.224,16.545C32.138,15.445 31.553,13.947 31.606,12.402C31.553,10.853 32.141,9.351 33.232,8.251C34.285,7.179 35.735,6.59 37.237,6.625C38.67,6.606 40.05,7.168 41.064,8.182C42.139,9.243 42.743,10.692 42.737,12.203ZM37.224,9.15C36.627,9.149 36.044,9.332 35.555,9.674C35.039,10.02 34.675,10.551 34.538,11.157L39.784,11.157C39.652,10.557 39.312,10.024 38.824,9.652C38.357,9.32 37.797,9.144 37.224,9.15Z" style="fill:rgb(245,137,31);fill-rule:nonzero;"/>
                        <path id="Path5" serif:id="Path" d="M51.222,6.642C52.413,6.598 53.566,7.071 54.383,7.939C55.202,8.84 55.634,10.027 55.585,11.243L55.585,17.851L52.705,17.851L52.705,11.831C52.739,11.16 52.525,10.5 52.104,9.976C51.704,9.513 51.115,9.257 50.504,9.28C48.702,9.28 47.8,10.53 47.797,13.029L47.797,17.851L44.921,17.851L44.921,6.971L47.797,6.971L47.797,7.948C48.711,7.062 49.949,6.59 51.222,6.642Z" style="fill:rgb(245,137,31);fill-rule:nonzero;"/>
                        <path id="Path6" serif:id="Path" d="M62.037,9.323L62.037,13.838C62.037,14.945 62.495,15.494 63.412,15.494C64.048,15.472 64.669,15.292 65.219,14.971L66.05,17.371C65.184,17.864 64.209,18.136 63.213,18.162C62.109,18.231 61.025,17.844 60.216,17.09C59.511,16.381 59.161,15.36 59.161,14.037L59.161,9.323L56.826,9.323L56.826,6.971L59.161,6.971L59.161,3.027L62.037,2.162L62.037,6.971L66.244,6.971L66.244,9.323L62.037,9.323Z" style="fill:rgb(245,137,31);fill-rule:nonzero;"/>
                        <path id="Path7" serif:id="Path" d="M74.599,6.815C74.855,6.806 75.112,6.835 75.36,6.902L75.209,9.674L74.577,9.674C71.983,9.674 70.685,11.229 70.685,14.339L70.685,17.851L67.805,17.851L67.805,6.971L70.685,6.971L70.685,8.865C71.516,7.517 73.017,6.73 74.599,6.815Z" style="fill:rgb(245,137,31);fill-rule:nonzero;"/>
                        <path id="Shape1" serif:id="Shape" d="M87.269,15.256L87.485,17.522C86.953,17.809 86.36,17.966 85.756,17.981C84.637,17.981 83.88,17.548 83.485,16.683C82.545,17.691 81.208,18.232 79.831,18.162C78.814,18.211 77.815,17.88 77.029,17.232C76.325,16.617 75.935,15.716 75.97,14.781C75.932,13.846 76.337,12.948 77.064,12.359C77.979,11.695 79.073,11.323 80.203,11.291L83.23,11.053L83.23,10.941C83.252,10.433 83.067,9.938 82.716,9.57C82.334,9.204 81.816,9.015 81.289,9.046C80.284,8.959 79.397,9.699 79.304,10.703L76.644,10.158C76.831,9.122 77.403,8.195 78.244,7.563C79.163,6.912 80.271,6.582 81.397,6.625C82.597,6.568 83.777,6.953 84.714,7.706C85.575,8.469 86.04,9.584 85.976,10.733L85.976,14.625C85.976,15.088 86.123,15.321 86.409,15.321C86.452,15.321 86.746,15.299 87.269,15.256ZM80.432,15.888C81.158,15.913 81.867,15.665 82.417,15.191C82.923,14.76 83.211,14.126 83.204,13.462L83.204,13.029L80.432,13.336C79.373,13.466 78.841,13.92 78.841,14.69C78.833,15.032 78.995,15.356 79.274,15.555C79.614,15.788 80.02,15.905 80.432,15.888Z" style="fill:rgb(245,137,31);fill-rule:nonzero;"/>
                        <path id="Path8" serif:id="Path" d="M92.108,17.851L89.228,17.851L89.228,0.406L92.108,0.406L92.108,17.851Z" style="fill:rgb(245,137,31);fill-rule:nonzero;"/>
                    </g>
                </g>
            </g>
        </g>
    </g>
</svg>
